<?xml version="1.0" encoding="UTF-8" ?>
<!DOCTYPE svg PUBLIC "-//W3C//DTD SVG 1.1//EN" "http://www.w3.org/Graphics/SVG/1.1/DTD/svg11.dtd">
<svg width="723pt" height="363pt" viewBox="0 0 723 363" version="1.1" xmlns="http://www.w3.org/2000/svg">
<path fill="#ffffff" d=" M 0.00 0.00 L 723.00 0.00 L 723.00 363.00 L 0.00 363.00 L 0.00 0.00 Z" />
<path fill="#aeadad" d=" M 120.65 77.66 C 139.83 63.19 163.70 53.89 187.95 54.74 C 217.15 53.49 245.37 66.93 266.41 86.52 C 284.83 105.42 297.59 130.41 299.45 156.95 C 299.33 164.61 299.66 172.29 299.28 179.94 C 296.39 199.10 289.59 218.07 277.38 233.31 C 273.39 238.30 270.01 243.99 264.52 247.51 C 249.65 262.13 230.16 271.32 209.97 275.96 C 203.46 277.21 196.84 278.25 190.20 278.12 C 190.14 289.97 190.18 301.81 190.15 313.65 C 185.77 311.86 182.67 308.01 178.93 305.24 C 163.15 291.62 147.36 278.01 131.56 264.41 C 123.64 255.94 113.34 250.08 105.59 241.41 C 98.26 232.44 91.83 222.71 86.56 212.39 C 80.36 199.48 77.77 185.20 76.63 171.04 C 75.69 150.26 80.90 129.30 91.21 111.26 C 96.61 102.79 102.17 94.29 109.33 87.22 C 113.26 84.21 116.47 80.36 120.65 77.66 Z" />
<path fill="#696969" d=" M 323.21 60.29 C 334.98 56.12 347.55 54.53 360.00 54.72 C 382.54 54.41 404.80 62.08 423.30 74.77 C 432.19 81.36 440.31 89.02 447.30 97.61 C 462.79 118.28 471.58 144.11 470.73 170.02 C 470.13 182.35 467.82 194.64 463.27 206.15 C 457.83 219.94 450.28 233.12 439.76 243.68 C 431.02 252.52 421.13 260.35 410.04 266.04 C 388.94 276.77 364.38 280.96 340.99 276.86 C 326.92 274.35 312.96 269.95 300.88 262.13 C 295.33 258.49 289.87 254.64 284.97 250.14 C 287.91 246.18 290.92 242.27 294.02 238.44 C 307.60 250.18 324.08 258.69 341.82 261.85 C 349.43 263.51 357.26 262.78 364.99 262.95 C 387.80 262.22 409.79 251.90 426.01 236.03 C 441.85 221.19 451.97 200.59 454.59 179.10 C 457.73 155.33 451.69 130.54 438.18 110.76 C 432.44 102.34 424.88 95.34 416.94 89.03 C 403.84 78.50 387.48 72.47 370.86 70.63 C 354.16 68.88 336.71 70.20 321.29 77.27 C 317.66 79.01 313.77 80.19 310.29 82.21 C 304.59 85.89 299.35 90.22 293.98 94.35 C 291.32 90.43 287.88 87.08 285.39 83.04 L 285.56 82.03 C 296.31 72.09 309.57 65.35 323.21 60.29 Z" />
<path fill="#454444" d=" M 478.78 69.75 C 496.81 58.16 518.76 53.99 539.95 54.67 C 569.10 55.17 597.47 68.52 617.32 89.72 C 637.78 111.22 648.66 141.38 647.28 170.97 C 647.16 190.04 640.69 208.64 630.89 224.85 C 627.74 230.51 623.38 235.31 619.68 240.59 C 609.13 251.65 597.10 261.72 583.02 267.96 C 563.49 276.85 541.41 280.62 520.12 277.36 C 496.94 273.98 474.77 263.48 458.05 246.98 C 478.35 221.25 489.17 187.85 485.85 155.07 C 485.31 147.97 483.62 141.03 482.69 133.99 C 482.42 131.73 481.22 129.76 480.26 127.75 C 476.17 119.74 473.81 110.87 468.60 103.44 C 465.80 97.19 461.83 91.63 458.05 85.95 C 464.00 79.45 471.08 74.03 478.78 69.75 Z" />
</svg>
