<?xml version="1.0" encoding="UTF-8" ?>
<!DOCTYPE svg PUBLIC "-//W3C//DTD SVG 1.1//EN" "http://www.w3.org/Graphics/SVG/1.1/DTD/svg11.dtd">
<svg width="694pt" height="348pt" viewBox="0 0 694 348" version="1.1" xmlns="http://www.w3.org/2000/svg">
<path fill="#ffffff" d=" M 0.00 0.00 L 694.00 0.00 L 694.00 348.00 L 0.00 348.00 L 0.00 0.00 Z" />
<path fill="#adacac" d=" M 102.63 84.67 C 123.08 64.12 151.67 50.81 180.95 51.80 C 210.17 50.96 238.83 64.22 258.95 85.07 C 276.09 103.47 287.19 127.78 288.25 153.03 C 288.15 161.63 288.86 170.37 286.77 178.81 C 284.60 191.90 279.61 204.37 273.01 215.83 C 268.88 222.30 263.79 228.06 259.23 234.22 C 255.14 237.07 251.98 241.02 247.89 243.87 C 241.26 248.69 234.59 253.80 226.74 256.47 C 223.27 259.20 218.81 260.05 214.81 261.72 C 204.64 265.10 193.91 267.47 183.14 267.01 C 183.06 278.83 183.18 290.66 183.09 302.48 C 175.92 298.00 169.95 291.88 163.40 286.57 C 151.56 276.42 139.70 266.27 127.93 256.04 C 118.85 246.42 106.84 239.94 98.67 229.40 C 89.16 217.34 80.77 203.96 76.91 188.94 C 72.85 172.98 71.47 156.12 74.65 139.88 C 76.43 129.10 80.43 118.87 85.06 109.03 C 90.16 100.40 95.89 92.10 102.63 84.67 Z" />
<path fill="#676767" d=" M 301.05 61.24 C 314.89 54.38 330.63 51.96 345.97 52.27 C 386.20 51.60 424.98 77.15 441.71 113.50 C 455.66 142.57 455.48 177.94 441.04 206.79 C 426.35 237.79 395.74 260.36 361.94 265.77 C 340.97 269.48 319.16 265.97 299.73 257.58 C 290.14 252.82 281.10 246.97 273.01 239.95 C 275.96 235.96 279.13 232.12 282.11 228.15 C 295.78 240.27 312.90 248.33 330.92 251.26 C 335.91 252.03 340.97 251.77 346.00 251.80 C 363.41 252.40 380.55 246.44 395.11 237.17 C 413.09 225.16 427.18 207.00 433.18 186.13 C 437.75 170.61 437.93 153.92 434.47 138.16 C 429.64 117.63 417.76 98.60 400.67 86.10 C 384.59 73.09 363.60 66.65 343.03 67.33 C 333.95 67.02 324.89 68.51 316.25 71.24 C 310.36 73.05 305.03 76.24 299.22 78.27 C 293.33 82.21 287.57 86.41 282.03 90.86 C 279.50 86.79 275.91 83.52 273.35 79.49 C 273.28 78.38 274.50 77.90 275.14 77.21 C 283.08 70.86 291.62 65.12 301.05 61.24 Z" />
<path fill="#454444" d=" M 460.43 66.22 C 473.04 57.75 488.18 54.30 503.06 52.57 C 513.73 52.08 524.49 51.97 535.03 53.91 C 540.37 55.12 545.69 56.46 550.87 58.27 C 566.84 64.12 581.30 73.85 592.98 86.19 C 596.96 90.67 600.64 95.39 604.28 100.14 C 604.35 100.35 604.48 100.75 604.54 100.96 C 605.90 102.95 607.13 105.03 608.43 107.07 L 608.45 107.97 C 608.76 108.49 609.40 109.53 609.71 110.05 C 617.59 125.79 621.90 143.38 621.53 161.01 C 621.71 183.27 613.73 205.13 600.88 223.14 C 600.52 223.42 599.79 223.98 599.42 224.26 C 595.36 231.28 589.17 236.80 583.06 242.03 C 567.86 255.09 548.78 263.30 529.01 266.17 C 496.74 270.93 462.68 259.54 439.41 236.77 C 453.16 219.28 462.82 198.36 465.55 176.18 C 466.96 165.83 467.12 155.28 465.73 144.92 C 465.14 138.94 463.48 133.12 463.07 127.11 C 459.66 120.52 457.02 113.58 454.07 106.79 C 452.40 103.04 449.57 99.96 447.98 96.16 C 445.84 91.15 442.27 86.96 439.38 82.39 C 445.38 75.80 452.70 70.58 460.43 66.22 Z" />
</svg>
